<svg xmlns="http://www.w3.org/2000/svg" height="24px" viewBox="0 -960 960 960" width="24px" fill="#D0BCFF"><path d="M480-80q-82 0-155-31.5t-127.5-86Q143-252 111.5-325T80-480q0-83 31.5-155.5t86-127Q252-817 325-848.5T480-880q83 0 155.5 31.5t127 86q54.5 54.5 86 127T880-480q0 82-31.5 155t-86 127.5q-54.5 54.5-127 86T480-80Zm0-80q54 0 104-17.5t92-50.5L528-376v-72q0-17-11.5-28.5T488-488H320v-80h240v-80H400v-80q-74 15-127 67t-77 127l186 186q9 9 12 21t-2 23l-52 113q36 15 74.5 23t73.5 8Zm194-170 82-205q-15-56-46.5-101.5T628-709l-14 14v103q0 17 11.5 28.5T654-552h66v110q0 33-14.5 61T674-330Z"/></svg>